<svg width="22" height="23" viewBox="0 0 22 23" fill="none" xmlns="http://www.w3.org/2000/svg">
<path d="M6.95708 20.8754C6.34241 20.8188 5.72357 20.6598 5.13805 20.4528C3.40862 19.8363 2.4793 18.5141 2.28553 16.645C2.14801 15.3162 2.08133 13.9787 2.00423 12.6412C1.92714 11.3146 1.83337 9.98794 1.83337 8.66129C1.83337 7.5329 1.96256 6.40451 2.39387 5.34582C2.88144 4.15425 3.72533 3.35042 4.87134 2.88426C5.78815 2.51176 6.75289 2.38976 7.7197 2.27213C9.57417 2.04994 11.4328 1.96934 13.2956 2.09786C14.7604 2.19807 16.2169 2.37887 17.5713 3.01714C18.4797 3.44628 19.1236 4.16079 19.4445 5.17154C19.8029 6.2956 19.9362 7.45666 20.0279 8.62861C20.1675 10.4323 20.205 12.2382 20.1258 14.0462C20.0716 15.2552 19.8841 16.4381 19.4236 17.549C18.7027 19.2896 17.5192 20.4964 15.6668 20.8101C15.0209 20.919 14.3603 20.956 13.7061 20.9735C12.7351 20.9996 11.762 20.98 10.789 20.98L6.95708 20.8754ZM11.3036 19.4813C12.6663 19.4181 13.879 19.3745 15.0917 19.2983C16.0439 19.2395 16.8295 18.8147 17.4275 18.0218C18.2484 16.9326 18.5172 15.6451 18.5964 14.3142C18.7256 12.1402 18.661 9.96831 18.4297 7.80301C18.3464 7.02098 18.2318 6.25202 17.8067 5.57237C17.6942 5.39155 17.6046 5.19332 17.5004 5.00599C17.2295 4.52021 16.8774 4.08671 16.3544 3.93858C15.1959 3.60747 14.0019 3.44628 12.8038 3.44846C11.4745 3.45064 10.1409 3.48114 8.8178 3.59657C7.81973 3.68371 6.82582 3.8863 5.84649 4.11285C4.63173 4.39386 3.9212 5.25868 3.61074 6.49165C3.28776 7.77687 3.28984 9.09043 3.36487 10.4062C3.43779 11.6631 3.53363 12.92 3.62323 14.1769C3.68158 14.9742 3.72118 15.7737 3.81702 16.5666C3.96703 17.78 4.58381 18.6339 5.73191 18.9802C6.27989 19.1458 6.84873 19.2917 7.41342 19.3288C8.75737 19.4181 10.1034 19.4377 11.3036 19.4813Z" fill="#5254D8"/>
<path d="M11.3036 19.4812C10.1034 19.4376 8.75738 19.418 7.41341 19.3287C6.84666 19.2917 6.27991 19.1436 5.7319 18.9802C4.5838 18.6338 3.96704 17.7799 3.81701 16.5666C3.71908 15.7758 3.67948 14.9742 3.62322 14.1769C3.53156 12.92 3.43778 11.6652 3.36486 10.4061C3.28985 9.09256 3.28777 7.779 3.61073 6.49157C3.92121 5.26081 4.63172 4.3938 5.84651 4.1128C6.82583 3.88625 7.81972 3.68366 8.81779 3.59652C10.1409 3.47888 11.4745 3.45057 12.8038 3.44839C14.004 3.44623 15.1959 3.6096 16.3544 3.93852C16.8774 4.08884 17.2295 4.52016 17.5004 5.00594C17.6046 5.19327 17.6942 5.3915 17.8067 5.57232C18.2318 6.24978 18.3464 7.02093 18.4297 7.80296C18.661 9.96826 18.7256 12.1401 18.5964 14.3141C18.5172 15.6451 18.2484 16.9325 17.4275 18.0217C16.8295 18.8146 16.046 19.2394 15.0917 19.2982C13.879 19.3723 12.6663 19.4159 11.3036 19.4812ZM8.80947 15.6407C8.87614 15.7649 8.9324 15.9588 9.05534 16.0764C9.34705 16.3596 9.79294 16.2202 9.97006 15.7932C10.1013 15.4752 10.2013 15.1419 10.2951 14.8086C11.0202 12.2251 11.7412 9.63934 12.4642 7.05361C12.583 6.62883 12.3996 6.22801 12.0266 6.10819C11.662 5.99056 11.2807 6.22801 11.1661 6.65061C11.114 6.8423 11.0765 7.03835 11.0244 7.23222C10.3785 9.65022 9.73253 12.0682 9.08866 14.4884C8.99283 14.8478 8.91365 15.2116 8.80947 15.6407ZM5.71107 11.0444C6.60913 10.2928 7.45507 9.58052 8.30521 8.87255C8.5886 8.63728 8.68235 8.35409 8.54691 8.08178C8.41148 7.80732 8.09268 7.69404 7.76763 7.83563C7.56345 7.92495 7.35924 8.04041 7.18628 8.18418C6.29657 8.92701 5.41519 9.67853 4.53379 10.4344C4.31292 10.624 4.2004 10.8941 4.27749 11.1794C4.3421 11.4234 4.44836 11.6805 4.60463 11.8678C5.33184 12.7457 6.26322 13.3622 7.18005 13.9917C7.55093 14.2466 8.03225 14.0135 8.1406 13.5865C8.22395 13.2532 8.10311 12.9875 7.85098 12.7871C7.45507 12.4712 7.04876 12.1662 6.65496 11.8482C6.34657 11.5977 6.05069 11.3341 5.71107 11.0444ZM16.1314 11.0313C16.0377 11.1163 15.9752 11.1838 15.9022 11.2404C15.0521 11.907 14.1999 12.5714 13.3477 13.238C13.0039 13.5081 12.9143 13.8959 13.1206 14.2139C13.3352 14.5407 13.7457 14.6104 14.0874 14.325C15.1563 13.4275 16.2169 12.5191 17.2629 11.5933C17.6796 11.2252 17.6483 10.7808 17.2233 10.4192C16.7524 10.0184 16.2752 9.62626 15.7939 9.2407C15.4042 8.92919 15.0042 8.63292 14.6062 8.33231C14.5187 8.26696 14.427 8.20378 14.3312 8.15586C14.0332 8.01209 13.7186 8.10358 13.5623 8.36933C13.4123 8.62638 13.4644 8.95751 13.7165 9.16226C14.052 9.43457 14.4041 9.68071 14.7437 9.94648C15.2042 10.2994 15.6585 10.661 16.1314 11.0313Z" fill="#323846"/>
<path d="M8.80945 15.6407C8.91363 15.2094 8.9928 14.8456 9.08866 14.4884C9.73251 12.0704 10.3805 9.65238 11.0244 7.23221C11.0765 7.04052 11.114 6.84228 11.1661 6.65057C11.2807 6.22797 11.662 5.99054 12.0266 6.10818C12.3996 6.22797 12.583 6.62879 12.4642 7.05357C11.7412 9.6393 11.0202 12.225 10.2951 14.8086C10.2013 15.1419 10.1013 15.4752 9.97004 15.7932C9.79503 16.2202 9.34703 16.3574 9.05532 16.0764C8.93446 15.9588 8.87822 15.7671 8.80945 15.6407Z" fill="#5254D8"/>
<path d="M5.71111 11.0444C6.04865 11.3341 6.34661 11.5977 6.65292 11.8461C7.04674 12.1641 7.45305 12.4691 7.84894 12.7849C8.10107 12.9853 8.22399 13.2533 8.13856 13.5844C8.03021 14.0114 7.54889 14.2445 7.178 13.9896C6.2612 13.36 5.3298 12.7436 4.60261 11.8657C4.44632 11.6761 4.34214 11.4213 4.27547 11.1773C4.19836 10.8898 4.31088 10.6218 4.53175 10.4323C5.41106 9.67641 6.29452 8.92487 7.18426 8.18204C7.35719 8.03826 7.5614 7.92281 7.76559 7.83352C8.09064 7.69192 8.40946 7.8052 8.54489 8.07966C8.68033 8.35413 8.58656 8.63514 8.30317 8.87041C7.45514 9.58056 6.60917 10.2929 5.71111 11.0444Z" fill="#5254D8"/>
<path d="M16.1313 11.0313C15.6583 10.661 15.2041 10.2994 14.7436 9.94431C14.4019 9.68072 14.0497 9.43239 13.7163 9.16008C13.4642 8.95533 13.4121 8.6242 13.5621 8.36715C13.7184 8.10141 14.0331 8.00991 14.331 8.15369C14.4289 8.2016 14.5185 8.26478 14.6061 8.33014C15.004 8.63074 15.4041 8.92701 15.7937 9.23852C16.2751 9.62408 16.7522 10.0162 17.2231 10.417C17.6482 10.7786 17.6794 11.223 17.2627 11.5912C16.2167 12.517 15.1541 13.4253 14.0872 14.3228C13.7476 14.6082 13.335 14.5385 13.1204 14.2117C12.912 13.8937 13.0016 13.5059 13.3475 13.2358C14.1997 12.5714 15.052 11.9048 15.9021 11.2382C15.975 11.1838 16.0396 11.1163 16.1313 11.0313Z" fill="#5254D8"/>
</svg>
