<svg width="608" height="187" viewBox="0 0 608 187" fill="none" xmlns="http://www.w3.org/2000/svg">
<path d="M35.5446 183.404C31.1795 183.404 26.9822 182.984 22.9529 182.145C18.9236 181.306 15.3139 179.796 12.124 177.614C9.10201 175.432 6.58367 172.411 4.56899 168.552C2.72221 164.692 1.79882 159.657 1.79882 153.448V30.8549C1.79882 25.149 2.97404 20.3662 5.3245 16.5063C7.67494 12.4786 10.613 9.3739 14.1387 7.19225C17.6644 4.84274 21.5258 3.16455 25.7231 2.15763C30.0882 1.15071 34.2015 0.647249 38.063 0.647249V183.404H35.5446ZM40.5813 78.6838H60.9799C60.9799 85.5643 59.7207 91.3541 57.2024 96.0532C54.684 100.584 49.5635 102.85 41.8405 102.85H40.5813V78.6838ZM62.7427 42.6863C62.7427 40.8404 62.5747 38.9941 62.2391 37.1482C62.071 35.1344 61.5674 33.3723 60.728 31.8619C60.0564 30.1836 58.9652 28.8411 57.4542 27.8342C56.1112 26.8273 54.1804 26.3238 51.662 26.3238C48.472 26.3238 45.786 27.3307 43.6033 29.3446C42.596 26.6594 42.0923 24.226 42.0923 22.0444C42.0923 19.3592 42.5122 16.758 43.3515 14.2407C44.3588 11.5556 45.8698 9.2061 47.8845 7.19225C49.8992 5.17841 52.4175 3.58411 55.4395 2.40936C58.6295 1.06679 62.4909 0.395508 67.0239 0.395508C72.0606 0.395508 76.5098 1.31852 80.3711 3.16456C84.4005 4.84274 87.7581 7.27615 90.4445 10.4648C93.1308 13.4855 95.1455 17.0937 96.4885 21.2892C97.9995 25.3169 98.755 29.6802 98.755 34.3792V183.404C94.222 183.404 89.7728 183.068 85.4078 182.397C81.2105 181.725 77.3491 180.383 73.8234 178.369C70.4658 176.187 67.7794 172.999 65.7647 168.803C63.7501 164.608 62.7427 158.986 62.7427 151.937V42.6863ZM570.916 166.538C570.916 161.335 572.678 156.972 576.204 153.448C579.73 149.924 583.925 148.161 588.796 148.161C593.998 148.161 598.366 149.924 601.891 153.448C605.417 156.972 607.18 161.335 607.18 166.538C607.18 171.405 605.417 175.6 601.891 179.124C598.366 182.649 593.998 184.411 588.796 184.411C583.925 184.411 579.73 182.649 576.204 179.124C572.678 175.6 570.916 171.405 570.916 166.538Z" fill="#5254D8"/>
<path d="M153.995 120.471H151.729C147.867 120.471 144.006 120.052 140.144 119.213C136.451 118.206 133.093 116.611 130.071 114.43C127.217 112.08 124.866 109.06 123.02 105.367C121.173 101.675 120.249 97.144 120.249 91.7739V85.2289C120.249 79.1873 121.257 74.2365 123.271 70.3768C125.286 66.517 127.888 63.4962 131.078 61.3145C134.268 59.1327 137.878 57.6223 141.907 56.7833C145.937 55.9443 149.966 55.5246 153.995 55.5246V120.471ZM175.401 118.457H177.668C181.529 118.457 185.307 118.961 189 119.968C192.862 120.807 196.22 122.401 199.074 124.751C202.096 126.932 204.53 129.869 206.377 133.561C208.223 137.253 209.147 141.784 209.147 147.155V153.7C209.147 159.741 208.14 164.692 206.125 168.552C204.11 172.412 201.508 175.432 198.318 177.614C195.128 179.796 191.519 181.306 187.489 182.145C183.46 182.984 179.431 183.404 175.401 183.404V118.457ZM208.14 77.677C208.14 83.0471 207.132 87.3265 205.118 90.5152C203.103 93.7039 200.668 96.2212 197.814 98.0672C194.96 99.9131 191.938 101.172 188.748 101.843C185.558 102.347 182.788 102.598 180.438 102.598C178.423 102.598 176.744 102.43 175.401 102.095V90.5152C175.401 86.991 174.562 84.3899 172.883 82.7116C171.204 81.0332 169.105 80.1943 166.587 80.1943C163.397 80.1943 160.711 81.2012 158.528 83.215C158.025 81.8726 157.689 80.6977 157.521 79.6908C157.521 78.5159 157.521 77.2573 157.521 75.9148C157.521 73.901 157.857 71.6354 158.528 69.1181C159.2 66.4329 160.459 63.9997 162.306 61.8179C164.152 59.4686 166.671 57.5385 169.861 56.0281C173.051 54.3498 177.08 53.5108 181.949 53.5108C186.482 53.5108 190.343 54.266 193.533 55.7764C196.891 57.1188 199.577 58.9651 201.592 61.3145C203.775 63.6638 205.369 66.2653 206.377 69.1181C207.552 71.9709 208.14 74.8241 208.14 77.677ZM121.509 159.238C121.509 154.035 122.516 149.84 124.531 146.651C126.545 143.295 128.98 140.693 131.834 138.848C134.688 137.002 137.71 135.827 140.9 135.323C144.09 134.652 146.86 134.316 149.21 134.316C151.225 134.316 152.904 134.484 154.247 134.82V146.399C154.247 149.924 155.086 152.525 156.765 154.203C158.444 155.881 160.543 156.72 163.061 156.72C166.083 156.72 168.77 155.713 171.12 153.7C171.624 155.042 171.875 156.301 171.875 157.476C172.043 158.483 172.127 159.657 172.127 161C172.127 163.014 171.707 165.363 170.868 168.048C170.196 170.566 168.853 172.999 166.839 175.348C164.992 177.53 162.474 179.46 159.284 181.138C156.262 182.649 152.4 183.404 147.699 183.404C143.166 183.404 139.221 182.732 135.863 181.39C132.673 179.88 129.987 177.95 127.804 175.6C125.79 173.251 124.195 170.649 123.02 167.797C122.012 164.944 121.509 162.091 121.509 159.238ZM229.256 0.647339H232.026C240.757 0.647339 248.06 2.99683 253.936 7.6958C259.98 12.3948 263.002 19.8628 263.002 30.0998V183.404H261.491C257.63 183.404 253.768 182.9 249.907 181.893C246.213 180.887 242.772 179.292 239.581 177.111C236.559 174.761 234.041 171.824 232.026 168.3C230.18 164.608 229.256 160.077 229.256 154.707V0.647339ZM286.675 94.7947C286.675 92.7808 286.507 90.8507 286.171 89.0048C286.003 87.1589 285.5 85.5644 284.66 84.222C283.989 82.7116 282.897 81.5367 281.386 80.6977C280.043 79.6908 278.112 79.1873 275.594 79.1873C274.251 79.1873 272.824 79.4391 271.313 79.9425C269.97 80.2781 268.71 80.9495 267.535 81.9564C266.864 80.6139 266.444 79.3553 266.276 78.1804C266.108 76.838 266.024 75.4952 266.024 74.1527C266.024 68.7826 268.291 64.3352 272.824 60.811C277.357 57.2868 282.813 55.5246 289.193 55.5246C299.266 55.5246 306.989 58.1258 312.362 63.3283C317.734 68.3629 320.42 75.6631 320.42 85.2289V183.404C316.559 183.404 312.613 182.984 308.584 182.145C304.723 181.138 301.113 179.544 297.755 177.362C294.566 175.013 291.879 171.992 289.697 168.3C287.682 164.44 286.675 159.573 286.675 153.7V94.7947ZM376.87 183.404H374.352C370.488 183.404 366.71 182.984 363.019 182.145C359.324 181.138 355.966 179.544 352.944 177.362C350.09 175.013 347.74 171.992 345.893 168.3C344.046 164.608 343.123 160.077 343.123 154.707V86.991C343.123 77.7608 345.306 70.2088 349.671 64.3352C354.204 58.4616 361.508 55.5246 371.582 55.5246C378.295 55.5246 383.835 57.2868 388.203 60.811C392.567 64.1673 394.75 69.6216 394.75 77.1735C394.75 79.6908 394.412 81.5367 393.743 82.7116C391.39 80.6977 388.872 79.6908 386.188 79.6908C382.493 79.6908 379.975 80.9495 378.633 83.4668C377.456 85.9841 376.87 88.6693 376.87 91.5222V183.404ZM399.283 55.7764C400.122 55.6084 400.96 55.5246 401.802 55.5246H404.32C413.386 55.5246 420.437 57.874 425.474 62.5731C430.511 67.1043 433.029 73.6493 433.029 82.2081V96.0533C433.029 107.465 430.173 115.94 424.467 121.478C418.757 127.016 411.789 129.785 403.565 129.785H401.802C395.419 129.45 390.217 127.352 386.188 123.492C382.324 119.464 380.396 114.681 380.396 109.143C380.396 108.304 380.396 107.549 380.396 106.878C380.561 106.206 380.899 105.199 381.403 103.857C382.745 105.199 383.921 106.206 384.929 106.878C385.936 107.549 387.613 107.885 389.965 107.885C393.826 107.885 396.344 106.542 397.52 103.857C398.693 101.004 399.283 97.7316 399.283 94.0395V55.7764ZM432.022 158.986C432.022 163.685 431.18 167.629 429.503 170.817C427.992 173.838 425.978 176.355 423.459 178.369C420.941 180.215 418.171 181.558 415.149 182.397C412.127 183.068 409.188 183.404 406.335 183.404C397.772 183.404 391.728 181.306 388.203 177.111C384.677 172.915 382.914 168.216 382.914 163.014C382.914 162.175 382.914 161.168 382.914 159.993C383.08 158.818 383.501 157.559 384.173 156.217C386.353 158.231 388.872 159.238 391.728 159.238C395.758 158.902 398.107 157.559 398.78 155.21C399.449 152.861 399.787 149.924 399.787 146.399V137.085C402.305 136.414 405.327 136.078 408.853 136.078C413.217 136.078 416.825 136.75 419.682 138.092C422.704 139.435 425.136 141.197 426.985 143.379C428.831 145.56 430.09 148.078 430.763 150.931C431.601 153.616 432.022 156.301 432.022 158.986ZM511.947 94.7947C511.947 92.7808 511.781 90.8507 511.443 89.0048C511.278 87.1589 510.774 85.5644 509.932 84.222C509.263 82.7116 508.169 81.5367 506.658 80.6977C505.316 79.6908 503.384 79.1873 500.866 79.1873C499.524 79.1873 498.096 79.4391 496.585 79.9425C495.243 80.2781 493.984 80.9495 492.807 81.9564C492.138 80.6139 491.717 79.3553 491.548 78.1804C491.383 76.838 491.296 75.4952 491.296 74.1527C491.296 68.7826 493.732 64.3352 498.6 60.811C503.471 57.2868 509.68 55.5246 517.235 55.5246C526.301 55.5246 533.27 58.2937 538.138 63.8318C543.174 69.2019 545.693 77.1735 545.693 87.7462V183.404H544.182C534.108 183.404 526.219 181.055 520.509 176.355C514.803 171.489 511.947 163.769 511.947 153.196V94.7947ZM454.529 55.5246H457.299C466.03 55.5246 473.333 57.874 479.208 62.5731C485.252 67.2722 488.274 74.74 488.274 84.9771V183.404H486.763C482.903 183.404 479.043 182.9 475.179 181.893C471.488 180.887 468.045 179.292 464.854 177.111C461.832 174.761 459.313 171.824 457.299 168.3C455.453 164.608 454.529 160.077 454.529 154.707V55.5246Z" fill="white"/>
</svg>
