<svg width="52" height="16" viewBox="0 0 52 16" fill="none" xmlns="http://www.w3.org/2000/svg">
<g clip-path="url(#clip0_71_105)">
<path d="M3.03996 15.6923C2.66663 15.6923 2.30765 15.6564 1.96304 15.5846C1.61842 15.5128 1.30971 15.3836 1.03689 15.1969C0.778424 15.0102 0.563039 14.7518 0.390732 14.4215C0.232783 14.0913 0.153809 13.6605 0.153809 13.1292V2.64C0.153809 2.15179 0.254322 1.74256 0.455347 1.41231C0.656372 1.06769 0.907655 0.802048 1.20919 0.615384C1.51073 0.414356 1.84099 0.270767 2.19996 0.184614C2.57329 0.0984603 2.92509 0.0553834 3.25535 0.0553834V15.6923H3.03996ZM3.47073 6.73231H5.21535C5.21535 7.32101 5.10766 7.8164 4.89227 8.21846C4.67689 8.60615 4.23895 8.8 3.57842 8.8H3.47073V6.73231ZM5.36612 3.65231C5.36612 3.49437 5.35175 3.3364 5.32304 3.17846C5.30867 3.00615 5.26559 2.85538 5.19381 2.72615C5.13636 2.58256 5.04304 2.46769 4.91381 2.38154C4.79895 2.29538 4.63381 2.25231 4.41842 2.25231C4.14559 2.25231 3.91587 2.33846 3.72919 2.51077C3.64304 2.28102 3.59996 2.07282 3.59996 1.88615C3.59996 1.65641 3.63587 1.43385 3.70765 1.21846C3.79381 0.988716 3.92304 0.787691 4.09535 0.615384C4.26765 0.443076 4.48304 0.306665 4.7415 0.206152C5.01433 0.09128 5.34458 0.033844 5.73227 0.033844C6.16304 0.033844 6.54356 0.112818 6.87381 0.270768C7.21842 0.414356 7.50559 0.622562 7.73535 0.895384C7.9651 1.15385 8.13741 1.46256 8.25227 1.82154C8.3815 2.16615 8.44612 2.53949 8.44612 2.94154V15.6923C8.05842 15.6923 7.6779 15.6636 7.30458 15.6062C6.94559 15.5487 6.61535 15.4338 6.31381 15.2615C6.02664 15.0749 5.79689 14.8021 5.62458 14.4431C5.45227 14.0841 5.36612 13.6031 5.36612 13V3.65231ZM48.8283 14.2492C48.8283 13.8041 48.979 13.4308 49.2806 13.1292C49.5821 12.8277 49.9409 12.6769 50.3575 12.6769C50.8024 12.6769 51.176 12.8277 51.4775 13.1292C51.779 13.4308 51.9298 13.8041 51.9298 14.2492C51.9298 14.6656 51.779 15.0246 51.4775 15.3262C51.176 15.6277 50.8024 15.7785 50.3575 15.7785C49.9409 15.7785 49.5821 15.6277 49.2806 15.3262C48.979 15.0246 48.8283 14.6656 48.8283 14.2492Z" fill="#5254D8"/>
<path d="M13.1707 10.3077H12.9769C12.6466 10.3077 12.3163 10.2718 11.9861 10.2C11.6702 10.1138 11.383 9.97745 11.1245 9.79077C10.8805 9.58975 10.6794 9.33129 10.5215 9.01538C10.3635 8.69948 10.2845 8.31178 10.2845 7.85231V7.29231C10.2845 6.77538 10.3707 6.35178 10.543 6.02154C10.7153 5.69129 10.9379 5.43283 11.2107 5.24615C11.4835 5.05948 11.7922 4.93025 12.1369 4.85846C12.4815 4.78668 12.8261 4.75077 13.1707 4.75077V10.3077ZM15.0015 10.1354H15.1953C15.5256 10.1354 15.8486 10.1785 16.1645 10.2646C16.4948 10.3364 16.782 10.4728 17.0261 10.6738C17.2845 10.8605 17.4928 11.1118 17.6507 11.4277C17.8086 11.7436 17.8876 12.1313 17.8876 12.5908V13.1508C17.8876 13.6677 17.8015 14.0913 17.6292 14.4215C17.4569 14.7518 17.2343 15.0102 16.9615 15.1969C16.6886 15.3836 16.3799 15.5128 16.0353 15.5846C15.6907 15.6564 15.3461 15.6923 15.0015 15.6923V10.1354ZM17.8015 6.64615C17.8015 7.10563 17.7153 7.47178 17.543 7.74462C17.3707 8.01745 17.1625 8.23283 16.9184 8.39077C16.6743 8.54871 16.4158 8.6564 16.143 8.71385C15.8702 8.75692 15.6333 8.77846 15.4322 8.77846C15.2599 8.77846 15.1163 8.76409 15.0015 8.73538V7.74462C15.0015 7.44308 14.9297 7.22052 14.7861 7.07692C14.6425 6.93332 14.463 6.86154 14.2476 6.86154C13.9748 6.86154 13.7451 6.94769 13.5584 7.12C13.5153 7.00514 13.4866 6.90461 13.4722 6.81846C13.4722 6.71794 13.4722 6.61025 13.4722 6.49538C13.4722 6.32308 13.5009 6.12923 13.5584 5.91385C13.6158 5.68409 13.7235 5.47591 13.8815 5.28923C14.0394 5.08822 14.2548 4.92308 14.5276 4.79385C14.8005 4.65025 15.1451 4.57846 15.5615 4.57846C15.9492 4.57846 16.2794 4.64308 16.5522 4.77231C16.8394 4.88717 17.0692 5.04514 17.2415 5.24615C17.4281 5.44717 17.5645 5.66975 17.6507 5.91385C17.7512 6.15794 17.8015 6.40206 17.8015 6.64615ZM10.3922 13.6246C10.3922 13.1795 10.4784 12.8205 10.6507 12.5477C10.823 12.2605 11.0312 12.0379 11.2753 11.88C11.5194 11.7221 11.7779 11.6215 12.0507 11.5785C12.3235 11.521 12.5605 11.4923 12.7615 11.4923C12.9338 11.4923 13.0774 11.5067 13.1922 11.5354V12.5262C13.1922 12.8277 13.264 13.0502 13.4076 13.1938C13.5512 13.3374 13.7307 13.4092 13.9461 13.4092C14.2045 13.4092 14.4343 13.3231 14.6353 13.1508C14.6784 13.2656 14.6999 13.3733 14.6999 13.4738C14.7143 13.56 14.7215 13.6605 14.7215 13.7754C14.7215 13.9477 14.6856 14.1487 14.6138 14.3785C14.5563 14.5938 14.4415 14.8021 14.2692 15.0031C14.1112 15.1898 13.8958 15.3549 13.623 15.4985C13.3645 15.6277 13.0343 15.6923 12.6322 15.6923C12.2445 15.6923 11.9071 15.6349 11.6199 15.52C11.3471 15.3908 11.1174 15.2256 10.9307 15.0246C10.7584 14.8236 10.622 14.601 10.5215 14.3569C10.4353 14.1128 10.3922 13.8687 10.3922 13.6246ZM19.6075 0.0553837H19.8444C20.5911 0.0553837 21.2157 0.256409 21.7183 0.658461C22.2352 1.06051 22.4937 1.69949 22.4937 2.57538V15.6923H22.3644C22.0342 15.6923 21.7039 15.6492 21.3737 15.5631C21.0578 15.4769 20.7634 15.3405 20.4906 15.1538C20.2321 14.9528 20.0167 14.7015 19.8444 14.4C19.6865 14.0841 19.6075 13.6964 19.6075 13.2369V0.0553837ZM24.5183 8.11077C24.5183 7.93846 24.5039 7.77332 24.4752 7.61538C24.4609 7.45745 24.4178 7.32102 24.346 7.20615C24.2885 7.07692 24.1952 6.9764 24.066 6.90462C23.9511 6.81846 23.786 6.77538 23.5706 6.77538C23.4557 6.77538 23.3337 6.79692 23.2044 6.84C23.0896 6.86871 22.9819 6.92615 22.8813 7.01231C22.8239 6.89745 22.788 6.78975 22.7737 6.68923C22.7593 6.57437 22.7521 6.45948 22.7521 6.34462C22.7521 5.88514 22.946 5.50462 23.3337 5.20308C23.7213 4.90154 24.188 4.75077 24.7337 4.75077C25.5952 4.75077 26.2557 4.97332 26.7152 5.41846C27.1747 5.84923 27.4044 6.47385 27.4044 7.29231V15.6923C27.0742 15.6923 26.7367 15.6564 26.3921 15.5846C26.0619 15.4985 25.7532 15.3621 25.466 15.1754C25.1932 14.9744 24.9634 14.7159 24.7767 14.4C24.6044 14.0698 24.5183 13.6533 24.5183 13.1508V8.11077ZM32.2324 15.6923H32.017C31.6865 15.6923 31.3634 15.6564 31.0477 15.5846C30.7317 15.4985 30.4445 15.3621 30.1861 15.1754C29.942 14.9744 29.7409 14.7159 29.583 14.4C29.4251 14.0841 29.3461 13.6964 29.3461 13.2369V7.44308C29.3461 6.65332 29.5328 6.00717 29.9061 5.50461C30.2938 5.00206 30.9185 4.75077 31.7801 4.75077C32.3542 4.75077 32.8281 4.90154 33.2016 5.20308C33.5748 5.49025 33.7616 5.95692 33.7616 6.60308C33.7616 6.81846 33.7327 6.9764 33.6754 7.07692C33.4742 6.90462 33.2588 6.81846 33.0293 6.81846C32.7133 6.81846 32.4979 6.92615 32.3831 7.14154C32.2825 7.35692 32.2324 7.58668 32.2324 7.83077V15.6923ZM34.1493 4.77231C34.221 4.75794 34.2927 4.75077 34.3647 4.75077H34.5801C35.3554 4.75077 35.9585 4.95178 36.3893 5.35385C36.8201 5.74154 37.0354 6.30154 37.0354 7.03385V8.21846C37.0354 9.19486 36.7911 9.92 36.3031 10.3938C35.8148 10.8677 35.2188 11.1046 34.5154 11.1046H34.3647C33.8188 11.0759 33.3739 10.8964 33.0293 10.5662C32.6988 10.2215 32.5339 9.81231 32.5339 9.33846C32.5339 9.26668 32.5339 9.20206 32.5339 9.14462C32.5481 9.08717 32.577 9.00101 32.6201 8.88615C32.7348 9.00101 32.8354 9.08717 32.9216 9.14462C33.0077 9.20206 33.1511 9.23077 33.3524 9.23077C33.6825 9.23077 33.8979 9.11591 33.9985 8.88615C34.0988 8.64206 34.1493 8.36206 34.1493 8.04615V4.77231ZM36.9493 13.6031C36.9493 14.0051 36.8773 14.3426 36.7339 14.6154C36.6047 14.8738 36.4324 15.0892 36.217 15.2615C36.0016 15.4195 35.7647 15.5344 35.5062 15.6062C35.2477 15.6636 34.9964 15.6923 34.7524 15.6923C34.0201 15.6923 33.5031 15.5128 33.2016 15.1538C32.9001 14.7949 32.7493 14.3928 32.7493 13.9477C32.7493 13.8759 32.7493 13.7898 32.7493 13.6892C32.7634 13.5887 32.7994 13.481 32.857 13.3662C33.0434 13.5385 33.2588 13.6246 33.5031 13.6246C33.8477 13.5959 34.0487 13.481 34.1062 13.28C34.1634 13.079 34.1924 12.8277 34.1924 12.5262V11.7292C34.4077 11.6718 34.6662 11.6431 34.9677 11.6431C35.341 11.6431 35.6496 11.7005 35.8939 11.8154C36.1524 11.9302 36.3604 12.081 36.5185 12.2677C36.6764 12.4544 36.7841 12.6698 36.8416 12.9138C36.9133 13.1436 36.9493 13.3733 36.9493 13.6031ZM43.785 8.11077C43.785 7.93846 43.7708 7.77332 43.7419 7.61538C43.7277 7.45745 43.6847 7.32102 43.6127 7.20615C43.5554 7.07692 43.4619 6.9764 43.3327 6.90462C43.2179 6.81846 43.0527 6.77538 42.8373 6.77538C42.7225 6.77538 42.6004 6.79692 42.4711 6.84C42.3564 6.86871 42.2487 6.92615 42.1481 7.01231C42.0908 6.89745 42.0548 6.78975 42.0404 6.68923C42.0262 6.57437 42.0188 6.45948 42.0188 6.34462C42.0188 5.88514 42.2271 5.50462 42.6434 5.20308C43.0601 4.90154 43.5911 4.75077 44.2373 4.75077C45.0127 4.75077 45.6087 4.98769 46.025 5.46154C46.4557 5.92102 46.6711 6.60308 46.6711 7.50769V15.6923H46.5419C45.6804 15.6923 45.0056 15.4913 44.5173 15.0892C44.0293 14.6728 43.785 14.0123 43.785 13.1077V8.11077ZM38.8742 4.75077H39.1111C39.8579 4.75077 40.4825 4.95178 40.985 5.35385C41.5019 5.75591 41.7604 6.39486 41.7604 7.27077V15.6923H41.6311C41.301 15.6923 40.9708 15.6492 40.6404 15.5631C40.3247 15.4769 40.0302 15.3405 39.7573 15.1538C39.4988 14.9528 39.2834 14.7015 39.1111 14.4C38.9533 14.0841 38.8742 13.6964 38.8742 13.2369V4.75077Z" fill="white"/>
</g>
<defs>
<clipPath id="clip0_71_105">
<rect width="52" height="16" fill="white"/>
</clipPath>
</defs>
</svg>
