<svg width="17" height="17" viewBox="0 0 17 17" fill="none" xmlns="http://www.w3.org/2000/svg">
<path d="M8.5 17C3.80558 17 0 13.1944 0 8.5C0 3.80558 3.80558 0 8.5 0C13.1944 0 17 3.80558 17 8.5C17 13.1944 13.1944 17 8.5 17ZM13.888 12.1523H12.3385C12.1604 12.8998 11.9294 13.5872 11.655 14.1948C12.1791 13.9034 12.666 13.5375 13.1017 13.1017C13.3962 12.8072 13.6587 12.4892 13.888 12.1523ZM15.0078 8.5C15.0078 7.93196 14.9351 7.37518 14.7948 6.83984H12.6687C12.7219 7.37681 12.75 7.9318 12.75 8.5C12.75 9.06821 12.7219 9.6232 12.6687 10.1602H14.7948C14.9351 9.62482 15.0078 9.06804 15.0078 8.5ZM8.5 1.99219C8.32734 1.99219 7.80114 2.33156 7.27666 3.38051C7.05942 3.81504 6.87298 4.31 6.72045 4.84766H10.2795C10.127 4.31003 9.94058 3.81504 9.7233 3.38051C9.19886 2.33156 8.67266 1.99219 8.5 1.99219ZM6.33559 6.83984C6.27426 7.3793 6.24219 7.93651 6.24219 8.5C6.24219 9.06349 6.27426 9.62071 6.33559 10.1602H10.6644C10.7257 9.62071 10.7578 9.06349 10.7578 8.5C10.7578 7.93651 10.7257 7.3793 10.6644 6.83984H6.33559ZM1.99219 8.5C1.99219 9.06804 2.06494 9.62482 2.20515 10.1602H4.33128C4.27812 9.6232 4.25 9.06821 4.25 8.5C4.25 7.9318 4.27812 7.37681 4.33128 6.83984H2.20515C2.06494 7.37518 1.99219 7.93196 1.99219 8.5ZM8.5 15.0078C8.67266 15.0078 9.19886 14.6684 9.72334 13.6195C9.94058 13.185 10.127 12.69 10.2796 12.1523H6.72045C6.87298 12.69 7.05938 13.185 7.27666 13.6195C7.80114 14.6684 8.32734 15.0078 8.5 15.0078ZM5.34501 14.1948C5.07062 13.5872 4.83959 12.8999 4.66145 12.1523H3.11196C3.34136 12.4892 3.60377 12.8072 3.89828 13.1017C4.33404 13.5375 4.82086 13.9034 5.34501 14.1948ZM3.11196 4.84766H4.66145C4.83959 4.10015 5.07065 3.41285 5.34501 2.8052C4.82086 3.09659 4.334 3.46252 3.89828 3.89828C3.60377 4.19279 3.34133 4.51078 3.11196 4.84766ZM11.655 2.8052C11.9294 3.41285 12.1604 4.10012 12.3385 4.84766H13.888C13.6586 4.51078 13.3962 4.19279 13.1017 3.89828C12.666 3.46252 12.1791 3.09659 11.655 2.8052Z" fill="#5254D8"/>
</svg>
