<svg width="17" height="18" viewBox="0 0 17 18" fill="none" xmlns="http://www.w3.org/2000/svg">
<path d="M0.598394 0.000136607C0.58266 -0.00013462 0.566922 -1.94851e-06 0.551195 0.000534477C0.367417 0.00678089 0.240951 0.069603 0.154746 0.157093C0.0398062 0.273745 -0.031894 0.463008 0.0140898 0.766019C0.0601129 1.06903 0.236874 1.47238 0.612781 1.91747C3.27436 5.06892 5.82409 8.10659 7.81429 10.3509C8.29541 10.8934 8.7431 11.3885 9.15205 11.8283C9.6262 10.5591 10.5073 9.67416 11.6179 9.25359C11.1936 8.84781 10.7188 8.40563 10.1989 7.93078C7.98764 5.91092 4.9945 3.32307 1.88935 0.621834C1.45084 0.240325 1.05337 0.0609298 0.75481 0.0142209C0.703046 0.00592818 0.650787 0.00120927 0.598394 9.67667e-05V0.000136607ZM12.1937 9.81298C10.9995 10.1164 10.1065 10.9741 9.7001 12.4078C9.92167 12.638 10.1296 12.8488 10.3187 13.0327C10.6159 13.3217 10.8713 13.5502 11.0718 13.7074C11.1414 13.022 11.4656 12.392 11.9203 11.9293C12.3359 11.5064 12.8806 11.2129 13.4541 11.1697C13.3023 10.9773 13.0958 10.7419 12.8413 10.4725C12.6517 10.2717 12.4331 10.0498 12.1937 9.81298ZM13.5795 11.8799C13.1719 11.8853 12.759 12.0899 12.4198 12.4351C11.9675 12.8952 11.6877 13.5829 11.7821 14.2533C11.9912 15.739 12.7131 16.8716 13.721 17.4854C14.612 18.0279 15.7381 18.1757 17 17.7632C16.0505 17.6037 15.1781 16.5416 15.1106 15.7481C15.5273 16.2579 16.0491 16.7247 16.617 17.0113C16.2296 16.113 16.2563 15.2029 16.1823 14.4522C16.1293 13.9142 16.0298 13.4583 15.7363 13.0532C15.4428 12.6482 14.9357 12.2655 13.9824 11.9429C13.8525 11.8991 13.7163 11.8778 13.5795 11.8799Z" fill="#5254D8"/>
</svg>
